<mxfile host="app.diagrams.net" modified="2023-12-05T04:09:11.367Z" agent="Mozilla/5.0 (Windows NT 10.0; Win64; x64) AppleWebKit/537.36 (KHTML, like Gecko) Chrome/109.0.0.0 Safari/537.36 SLBrowser/9.0.0.10191 SLBChan/103" version="22.1.5" etag="sgidTnQ40nICecEq5tUk" type="github">
  <diagram name="第 1 页" id="TkqQR-lpqGNV5h464bZm">
    <mxGraphModel>
      <root>
        <mxCell id="0" />
        <mxCell id="1" parent="0" />
      </root>
    </mxGraphModel>
  </diagram>
</mxfile>
